<mxfile host="app.diagrams.net" modified="2023-10-25T00:01:15.416Z" agent="Mozilla/5.0 (Macintosh; Intel Mac OS X 10_15_7) AppleWebKit/605.1.15 (KHTML, like Gecko) Version/16.5.2 Safari/605.1.15" etag="llKiGzRbOHMm85SDLTc9" version="22.0.6" type="github">
  <diagram name="Page-1" id="J7Rwe3FlgArO9YMWmGPn">
    <mxGraphModel dx="1187" dy="788" grid="1" gridSize="10" guides="1" tooltips="1" connect="1" arrows="1" fold="1" page="1" pageScale="1" pageWidth="850" pageHeight="1100" math="0" shadow="0">
      <root>
        <mxCell id="0" />
        <mxCell id="1" parent="0" />
        <mxCell id="r0di9if8hs9-B2SNoRB6-1" value="AWS Cloud" style="points=[[0,0],[0.25,0],[0.5,0],[0.75,0],[1,0],[1,0.25],[1,0.5],[1,0.75],[1,1],[0.75,1],[0.5,1],[0.25,1],[0,1],[0,0.75],[0,0.5],[0,0.25]];outlineConnect=0;gradientColor=none;html=1;whiteSpace=wrap;fontSize=12;fontStyle=0;container=1;pointerEvents=0;collapsible=0;recursiveResize=0;shape=mxgraph.aws4.group;grIcon=mxgraph.aws4.group_aws_cloud_alt;strokeColor=#232F3E;fillColor=none;verticalAlign=top;align=left;spacingLeft=30;fontColor=#232F3E;dashed=0;" parent="1" vertex="1">
          <mxGeometry x="20" y="120" width="850" height="880" as="geometry" />
        </mxCell>
        <mxCell id="r0di9if8hs9-B2SNoRB6-2" value="VPC" style="points=[[0,0],[0.25,0],[0.5,0],[0.75,0],[1,0],[1,0.25],[1,0.5],[1,0.75],[1,1],[0.75,1],[0.5,1],[0.25,1],[0,1],[0,0.75],[0,0.5],[0,0.25]];outlineConnect=0;gradientColor=none;html=1;whiteSpace=wrap;fontSize=12;fontStyle=0;container=1;pointerEvents=0;collapsible=0;recursiveResize=0;shape=mxgraph.aws4.group;grIcon=mxgraph.aws4.group_vpc;strokeColor=#248814;fillColor=none;verticalAlign=top;align=left;spacingLeft=30;fontColor=#AAB7B8;dashed=0;" parent="1" vertex="1">
          <mxGeometry x="40" y="160" width="810" height="810" as="geometry" />
        </mxCell>
        <mxCell id="r0di9if8hs9-B2SNoRB6-10" value="" style="outlineConnect=0;dashed=0;verticalLabelPosition=bottom;verticalAlign=top;align=center;html=1;shape=mxgraph.aws3.internet_gateway;fillColor=#F58534;gradientColor=none;" parent="r0di9if8hs9-B2SNoRB6-2" vertex="1">
          <mxGeometry x="330" y="-30" width="69" height="72" as="geometry" />
        </mxCell>
        <mxCell id="r0di9if8hs9-B2SNoRB6-11" value="Private subnet" style="points=[[0,0],[0.25,0],[0.5,0],[0.75,0],[1,0],[1,0.25],[1,0.5],[1,0.75],[1,1],[0.75,1],[0.5,1],[0.25,1],[0,1],[0,0.75],[0,0.5],[0,0.25]];outlineConnect=0;gradientColor=none;html=1;whiteSpace=wrap;fontSize=12;fontStyle=0;container=1;pointerEvents=0;collapsible=0;recursiveResize=0;shape=mxgraph.aws4.group;grIcon=mxgraph.aws4.group_security_group;grStroke=0;strokeColor=#147EBA;fillColor=#E6F2F8;verticalAlign=top;align=left;spacingLeft=30;fontColor=#147EBA;dashed=0;" parent="r0di9if8hs9-B2SNoRB6-2" vertex="1">
          <mxGeometry x="280" y="240" width="250" height="250" as="geometry" />
        </mxCell>
        <mxCell id="r0di9if8hs9-B2SNoRB6-15" value="PrivateSubnet&lt;br&gt;10.248.2.0/24" style="text;html=1;align=center;verticalAlign=middle;resizable=0;points=[];autosize=1;strokeColor=none;fillColor=none;" parent="r0di9if8hs9-B2SNoRB6-11" vertex="1">
          <mxGeometry x="70" y="50" width="100" height="40" as="geometry" />
        </mxCell>
        <mxCell id="r0di9if8hs9-B2SNoRB6-30" value="" style="outlineConnect=0;dashed=0;verticalLabelPosition=bottom;verticalAlign=top;align=center;html=1;shape=mxgraph.aws3.ec2;fillColor=#F58534;gradientColor=none;" parent="r0di9if8hs9-B2SNoRB6-11" vertex="1">
          <mxGeometry x="40" y="150" width="48.5" height="53" as="geometry" />
        </mxCell>
        <mxCell id="r0di9if8hs9-B2SNoRB6-31" value="" style="outlineConnect=0;dashed=0;verticalLabelPosition=bottom;verticalAlign=top;align=center;html=1;shape=mxgraph.aws3.ec2;fillColor=#F58534;gradientColor=none;" parent="r0di9if8hs9-B2SNoRB6-11" vertex="1">
          <mxGeometry x="160" y="150" width="48.5" height="53" as="geometry" />
        </mxCell>
        <mxCell id="r0di9if8hs9-B2SNoRB6-32" value="BackEnd" style="text;html=1;align=center;verticalAlign=middle;resizable=0;points=[];autosize=1;strokeColor=none;fillColor=none;" parent="r0di9if8hs9-B2SNoRB6-11" vertex="1">
          <mxGeometry x="29.25" y="210" width="70" height="30" as="geometry" />
        </mxCell>
        <mxCell id="r0di9if8hs9-B2SNoRB6-33" value="BackEnd-Bk" style="text;html=1;align=center;verticalAlign=middle;resizable=0;points=[];autosize=1;strokeColor=none;fillColor=none;" parent="r0di9if8hs9-B2SNoRB6-11" vertex="1">
          <mxGeometry x="139.25" y="210" width="90" height="30" as="geometry" />
        </mxCell>
        <mxCell id="r0di9if8hs9-B2SNoRB6-12" value="Public subnet" style="points=[[0,0],[0.25,0],[0.5,0],[0.75,0],[1,0],[1,0.25],[1,0.5],[1,0.75],[1,1],[0.75,1],[0.5,1],[0.25,1],[0,1],[0,0.75],[0,0.5],[0,0.25]];outlineConnect=0;gradientColor=none;html=1;whiteSpace=wrap;fontSize=12;fontStyle=0;container=1;pointerEvents=0;collapsible=0;recursiveResize=0;shape=mxgraph.aws4.group;grIcon=mxgraph.aws4.group_security_group;grStroke=0;strokeColor=#248814;fillColor=#E9F3E6;verticalAlign=top;align=left;spacingLeft=30;fontColor=#248814;dashed=0;" parent="r0di9if8hs9-B2SNoRB6-2" vertex="1">
          <mxGeometry x="10" y="240" width="250" height="250" as="geometry" />
        </mxCell>
        <mxCell id="r0di9if8hs9-B2SNoRB6-14" value="PublicSubnet&lt;br&gt;10.248.1.0/24" style="text;html=1;align=center;verticalAlign=middle;resizable=0;points=[];autosize=1;strokeColor=none;fillColor=none;" parent="r0di9if8hs9-B2SNoRB6-12" vertex="1">
          <mxGeometry x="60" y="50" width="100" height="40" as="geometry" />
        </mxCell>
        <mxCell id="r0di9if8hs9-B2SNoRB6-17" value="" style="outlineConnect=0;dashed=0;verticalLabelPosition=bottom;verticalAlign=top;align=center;html=1;shape=mxgraph.aws3.ec2;fillColor=#F58534;gradientColor=none;" parent="r0di9if8hs9-B2SNoRB6-12" vertex="1">
          <mxGeometry x="140" y="140" width="48.5" height="53" as="geometry" />
        </mxCell>
        <mxCell id="r0di9if8hs9-B2SNoRB6-18" value="FrontEnd-Bk&lt;br&gt;10.248.1.81" style="text;html=1;align=center;verticalAlign=middle;resizable=0;points=[];autosize=1;strokeColor=none;fillColor=none;" parent="r0di9if8hs9-B2SNoRB6-12" vertex="1">
          <mxGeometry x="119.25" y="203" width="90" height="40" as="geometry" />
        </mxCell>
        <mxCell id="r0di9if8hs9-B2SNoRB6-19" value="" style="outlineConnect=0;dashed=0;verticalLabelPosition=bottom;verticalAlign=top;align=center;html=1;shape=mxgraph.aws3.ec2;fillColor=#F58534;gradientColor=none;" parent="r0di9if8hs9-B2SNoRB6-12" vertex="1">
          <mxGeometry x="20.75" y="140" width="48.5" height="53" as="geometry" />
        </mxCell>
        <mxCell id="r0di9if8hs9-B2SNoRB6-20" value="FrontEnd&lt;br&gt;10.248.1.80" style="text;html=1;align=center;verticalAlign=middle;resizable=0;points=[];autosize=1;strokeColor=none;fillColor=none;" parent="r0di9if8hs9-B2SNoRB6-12" vertex="1">
          <mxGeometry y="203" width="90" height="40" as="geometry" />
        </mxCell>
        <mxCell id="r0di9if8hs9-B2SNoRB6-23" value="" style="outlineConnect=0;dashed=0;verticalLabelPosition=bottom;verticalAlign=top;align=center;html=1;shape=mxgraph.aws3.vpc_nat_gateway;fillColor=#F58534;gradientColor=none;" parent="r0di9if8hs9-B2SNoRB6-12" vertex="1">
          <mxGeometry x="200" y="70" width="40" height="42" as="geometry" />
        </mxCell>
        <mxCell id="1l98DAQhjNEkr_LWlVun-2" value="" style="edgeStyle=orthogonalEdgeStyle;html=1;endArrow=none;elbow=vertical;startArrow=none;endFill=0;strokeColor=#545B64;rounded=0;" edge="1" parent="r0di9if8hs9-B2SNoRB6-12" target="r0di9if8hs9-B2SNoRB6-25">
          <mxGeometry width="100" relative="1" as="geometry">
            <mxPoint x="220" y="70" as="sourcePoint" />
            <mxPoint x="320" y="70" as="targetPoint" />
            <Array as="points">
              <mxPoint x="220" y="-20" />
            </Array>
          </mxGeometry>
        </mxCell>
        <mxCell id="r0di9if8hs9-B2SNoRB6-13" value="Communication Subnet" style="sketch=0;outlineConnect=0;gradientColor=none;html=1;whiteSpace=wrap;fontSize=12;fontStyle=0;shape=mxgraph.aws4.group;grIcon=mxgraph.aws4.group_subnet;strokeColor=#879196;fillColor=none;verticalAlign=top;align=left;spacingLeft=30;fontColor=#879196;dashed=0;" parent="r0di9if8hs9-B2SNoRB6-2" vertex="1">
          <mxGeometry x="550" y="240" width="250" height="250" as="geometry" />
        </mxCell>
        <mxCell id="r0di9if8hs9-B2SNoRB6-21" value="" style="outlineConnect=0;dashed=0;verticalLabelPosition=bottom;verticalAlign=top;align=center;html=1;shape=mxgraph.aws3.route_table;fillColor=#F58536;gradientColor=none;" parent="r0di9if8hs9-B2SNoRB6-2" vertex="1">
          <mxGeometry x="140" y="210" width="64" height="49" as="geometry" />
        </mxCell>
        <mxCell id="r0di9if8hs9-B2SNoRB6-22" value="" style="edgeStyle=orthogonalEdgeStyle;html=1;endArrow=none;elbow=vertical;startArrow=none;startFill=0;strokeColor=#545B64;rounded=0;exitX=0.5;exitY=0;exitDx=0;exitDy=0;exitPerimeter=0;entryX=0.29;entryY=0.972;entryDx=0;entryDy=0;entryPerimeter=0;" parent="r0di9if8hs9-B2SNoRB6-2" source="r0di9if8hs9-B2SNoRB6-21" target="r0di9if8hs9-B2SNoRB6-10" edge="1">
          <mxGeometry width="100" relative="1" as="geometry">
            <mxPoint x="230" y="430" as="sourcePoint" />
            <mxPoint x="330" y="430" as="targetPoint" />
          </mxGeometry>
        </mxCell>
        <mxCell id="r0di9if8hs9-B2SNoRB6-25" value="" style="outlineConnect=0;dashed=0;verticalLabelPosition=bottom;verticalAlign=top;align=center;html=1;shape=mxgraph.aws3.route_table;fillColor=#F58536;gradientColor=none;" parent="r0di9if8hs9-B2SNoRB6-2" vertex="1">
          <mxGeometry x="430" y="210" width="64" height="49" as="geometry" />
        </mxCell>
        <mxCell id="r0di9if8hs9-B2SNoRB6-28" value="" style="outlineConnect=0;dashed=0;verticalLabelPosition=bottom;verticalAlign=top;align=center;html=1;shape=mxgraph.aws3.route_table;fillColor=#F58536;gradientColor=none;" parent="r0di9if8hs9-B2SNoRB6-2" vertex="1">
          <mxGeometry x="720" y="200" width="65" height="59" as="geometry" />
        </mxCell>
        <mxCell id="r0di9if8hs9-B2SNoRB6-35" value="" style="outlineConnect=0;dashed=0;verticalLabelPosition=bottom;verticalAlign=top;align=center;html=1;shape=mxgraph.aws3.ec2;fillColor=#F58534;gradientColor=none;" parent="r0di9if8hs9-B2SNoRB6-2" vertex="1">
          <mxGeometry x="590" y="390" width="48.5" height="53" as="geometry" />
        </mxCell>
        <mxCell id="r0di9if8hs9-B2SNoRB6-34" value="" style="outlineConnect=0;dashed=0;verticalLabelPosition=bottom;verticalAlign=top;align=center;html=1;shape=mxgraph.aws3.ec2;fillColor=#F58534;gradientColor=none;" parent="r0di9if8hs9-B2SNoRB6-2" vertex="1">
          <mxGeometry x="728.25" y="380" width="48.5" height="53" as="geometry" />
        </mxCell>
        <mxCell id="r0di9if8hs9-B2SNoRB6-36" value="CPaaS" style="text;html=1;align=center;verticalAlign=middle;resizable=0;points=[];autosize=1;strokeColor=none;fillColor=none;" parent="r0di9if8hs9-B2SNoRB6-2" vertex="1">
          <mxGeometry x="584.25" y="450" width="60" height="30" as="geometry" />
        </mxCell>
        <mxCell id="r0di9if8hs9-B2SNoRB6-37" value="CPaaS-Bk" style="text;html=1;align=center;verticalAlign=middle;resizable=0;points=[];autosize=1;strokeColor=none;fillColor=none;" parent="r0di9if8hs9-B2SNoRB6-2" vertex="1">
          <mxGeometry x="705" y="450" width="80" height="30" as="geometry" />
        </mxCell>
        <mxCell id="r0di9if8hs9-B2SNoRB6-38" value="ComSubnet&lt;br&gt;10.248.3.0/24" style="text;html=1;align=center;verticalAlign=middle;resizable=0;points=[];autosize=1;strokeColor=none;fillColor=none;" parent="r0di9if8hs9-B2SNoRB6-2" vertex="1">
          <mxGeometry x="628.25" y="290" width="100" height="40" as="geometry" />
        </mxCell>
        <mxCell id="1l98DAQhjNEkr_LWlVun-1" value="" style="edgeStyle=orthogonalEdgeStyle;html=1;endArrow=none;elbow=vertical;startArrow=none;endFill=0;strokeColor=#545B64;rounded=0;entryX=0;entryY=0;entryDx=0;entryDy=0;entryPerimeter=0;exitX=1;exitY=0.5;exitDx=0;exitDy=0;exitPerimeter=0;" edge="1" parent="r0di9if8hs9-B2SNoRB6-2" source="r0di9if8hs9-B2SNoRB6-23" target="r0di9if8hs9-B2SNoRB6-28">
          <mxGeometry width="100" relative="1" as="geometry">
            <mxPoint x="230" y="310" as="sourcePoint" />
            <mxPoint x="330" y="310" as="targetPoint" />
            <Array as="points">
              <mxPoint x="250" y="330" />
              <mxPoint x="270" y="330" />
              <mxPoint x="270" y="170" />
              <mxPoint x="720" y="170" />
            </Array>
          </mxGeometry>
        </mxCell>
        <mxCell id="r0di9if8hs9-B2SNoRB6-16" value="MGibson-VPC&lt;br&gt;10.248.0.0/16" style="text;html=1;align=center;verticalAlign=middle;resizable=0;points=[];autosize=1;strokeColor=none;fillColor=none;" parent="1" vertex="1">
          <mxGeometry x="50" y="183" width="100" height="40" as="geometry" />
        </mxCell>
        <mxCell id="r0di9if8hs9-B2SNoRB6-27" value="" style="edgeStyle=orthogonalEdgeStyle;html=1;endArrow=block;elbow=vertical;startArrow=block;startFill=1;endFill=1;strokeColor=#545B64;rounded=0;" parent="1" source="r0di9if8hs9-B2SNoRB6-12" edge="1">
          <mxGeometry width="100" relative="1" as="geometry">
            <mxPoint x="270" y="590" as="sourcePoint" />
            <mxPoint x="330" y="525" as="targetPoint" />
            <Array as="points">
              <mxPoint x="315" y="530" />
              <mxPoint x="315" y="526" />
              <mxPoint x="330" y="526" />
            </Array>
          </mxGeometry>
        </mxCell>
      </root>
    </mxGraphModel>
  </diagram>
</mxfile>
